<?xml version="1.0" encoding="UTF-8"?>
<svg id="Layer_1" data-name="Layer 1" xmlns="http://www.w3.org/2000/svg" viewBox="0 0 569.5 546.5">
  <defs>
    <style>
      .cls-1 {
        stroke-width: 0px;
      }
    </style>
  </defs>
  <path class="cls-1" d="M55.4.4c-.9.9-.4,375,.5,375.6,1.1.6,3.8-4.1,14.4-24.7,4.2-8.1,9.5-17.8,11.9-21.5l4.3-6.8V33l63.5-.3,63.5-.2,55.1,109.7c30.4,60.4,78.8,156.8,107.7,214.3l52.5,104.5.6,42.5.6,42.5h30.1l.3-46.6.4-46.7-8.3-16.3-33.7-67.4c-14-28.1-29.7-58.9-34.8-68.5-9.9-18.7-56-109.3-97.7-192-14-27.8-30-59.3-35.6-70-5.5-10.7-11.7-23.6-13.8-28.5l-3.8-9-88.6-.5C95.7.2,55.6.2,55.4.4Z"/>
  <path class="cls-1" d="M274,33c9.2,18.1,28.5,56.4,42.9,85,14.3,28.6,37.1,73.6,50.6,100,30,59,106.7,212,111.8,223.1l3.7,8.2v27.4c0,15.1.3,37,.7,48.6l.6,21.2h29.9l-.4-54.3-.3-54.2-44.1-88c-40.9-81.7-76.4-151.5-92.2-181.5-18.9-35.8-72.3-142.2-79.7-158.8l-4.2-9.4-18.1-.1-18-.2,16.8,33Z"/>
  <path class="cls-1" d="M319.8,1.3c.2.7,2.3,4.6,4.6,8.5,2.2,4,5.7,10.7,7.6,15l3.5,7.6,36.9.1h36.9l-.5-15.5c-.3-8.6-.7-15.8-1-16-.2-.2-20.2-.6-44.5-.7-35.9-.2-44-.1-43.5,1Z"/>
  <path class="cls-1" d="M0,273.5v273h32V.5H0v273Z"/>
  <path class="cls-1" d="M429.7,30.7c-.2,16.7-.4,32.5-.4,35.3s0,38.2-.2,78.8l-.2,73.8,5.4,9.2c3,5.1,9.6,17.2,14.8,26.9,5.8,11.1,9.6,17.3,10.1,16.5.4-.7.8-61.8.8-136V.5h-29.8l-.5,30.2Z"/>
  <path class="cls-1" d="M483.7,5.7c-.3,2.9-.6,76.2-.6,162.8v157.5l2.4,3.7c1.4,2,7.5,13.3,13.6,25s11.7,21.9,12.4,22.6c2.1,2.3,2.5-30.8,2.5-207.5V.5h-29.8l-.5,5.2Z"/>
  <path class="cls-1" d="M537,273.2v272.8l16,.1,16,.1.2-43.6c.2-24,.3-146.8.3-272.8V.5h-32.5v272.7Z"/>
  <path class="cls-1" d="M152.8,59.2l-43.8.3.1,78.8c.1,43.3.4,89.5.8,102.6l.6,24,5.2-8.1c2.8-4.4,7.5-12.7,10.3-18.4,2.9-5.7,7.5-14.1,10.2-18.6l5.1-8.3-.3-48.2c-.2-26.6-.2-53.6-.2-60.1l.2-11.9,30.9.4,30.9.3,2.5-5.5c1.5-3,3.1-6.2,3.8-7,1.5-2.1-8.4-21.1-10.9-20.8-1,.2-21.4.4-45.4.5Z"/>
  <path class="cls-1" d="M350,59.1c0,.1,2.4,5.2,5.4,11.5,2.9,6.3,6.2,13.5,7.2,16.1l1.9,4.8h44l-.3-14.2c-.1-7.9-.5-15.2-.7-16.4-.5-2-.8-2.1-29-2-15.7.1-28.5.1-28.5.2Z"/>
  <path class="cls-1" d="M219.1,104.5c-5.5,9-38.6,77.1-53.3,109.5-2.7,6-12.5,26.3-21.7,45s-21.7,44.3-27.7,57c-6,12.6-22.4,45.9-36.4,74l-25.5,51,.3,52.7.2,52.8h31v-100.3l17.9-36.1c20.3-41.1,44.6-90.4,57.9-117.6,21.9-44.9,31.2-64.2,31.2-64.6,0-.7,21.1-45.8,21.9-46.9.5-.5,3.4-6.6,6.7-13.5,6.1-13.1,13.4-26,16.6-29.6,1.8-2,1.8-2.1-.4-4.9-1.3-1.6-5.5-9.4-9.4-17.4l-7.2-14.5-2.1,3.4Z"/>
  <path class="cls-1" d="M249,161.6c0,1.2-4.1,10.5-11.8,26.9-2.4,5.2-6.2,13.5-8.4,18.5-4.9,11.1-23.6,50-41.5,86.5-7.5,15.1-19.3,39.6-26.3,54.5-11.2,23.7-35.8,73.6-47.9,97l-4.1,8v93.5h31.3l-.5-42.8-.5-42.7,6.2-11.5c3.3-6.3,11.7-23,18.5-37s17.2-35.6,23.3-48c6-12.4,13.6-28.1,16.9-35s9.6-19.9,14-29c11.6-23.9,17.1-35.3,21.8-45.5,11.4-24.3,27.1-55.3,28.9-56.9l2.1-1.9-2.5-2.9c-1.4-1.7-5.9-9.7-10.1-17.9-6.7-13.3-9.4-17.2-9.4-13.8Z"/>
  <path class="cls-1" d="M257.3,273.5c-1.2,4.2-5.1,13.4-9,21.5-2.3,4.9-4.3,9-4.3,9.1,0,.4,79.1,1.6,79.6,1.2.2-.3-1.8-4.5-4.7-9.4-6.9-12-10.9-20-10.9-21.9,0-1.4-1.8-1.5-15.7-1-8.7.3-20,.2-25.2-.2-8-.8-9.4-.7-9.8.7Z"/>
  <path class="cls-1" d="M228.2,335.1c-.7,2.7-3.8,10-6.9,16.1-3.1,6.2-5.3,11.6-4.9,12,.4.5,17.9.7,38.9.6s51.6-.2,67.9-.2l29.7-.1-7.5-14.5c-4.1-7.9-7.4-15.1-7.4-16,0-1.3-5.6-1.5-49.9-1.5-27.4,0-51.8-.3-54.2-.6l-4.4-.6-1.3,4.8Z"/>
  <path class="cls-1" d="M198.2,397.8c-1.2,3.5-4.5,10.8-7.2,16.2-2.8,5.3-5,10.2-5,10.7,0,.9,195.5.7,196.4-.3.3-.2-2.5-6.5-6.1-13.9s-6.8-14.5-7.2-15.7l-.6-2.2-84-.6-84-.6-2.3,6.4Z"/>
  <path class="cls-1" d="M171,452.9c0,.8-1.9,5.4-4.1,10.2-3.2,6.6-4.3,10.2-4.7,15.3l-.4,6.6,116.4-.3c64.1-.1,119.8.1,123.8.6l7.2.9-.5-6.6c-.4-5.3-1.5-8.5-5.9-17.1l-5.3-10.6-113.2-.3c-100.1-.2-113.3,0-113.3,1.3Z"/>
  <path class="cls-1" d="M162,528.7v17.3l122.7-.3c67.5-.1,122.8-.3,122.9-.5.1-.1.4-7.7.6-17l.3-16.7h-246.5v17.2Z"/>
</svg>